<?xml version="1.0" standalone="no"?>
<!DOCTYPE svg PUBLIC "-//W3C//DTD SVG 20010904//EN"
 "http://www.w3.org/TR/2001/REC-SVG-20010904/DTD/svg10.dtd">
<svg version="1.0" xmlns="http://www.w3.org/2000/svg"
 width="310.000000pt" height="310.000000pt" viewBox="0 0 310.000000 310.000000"
 preserveAspectRatio="xMidYMid meet">
<metadata>
Created by potrace 1.11, written by Peter Selinger 2001-2013
</metadata>
<g transform="translate(0.000000,310.000000) scale(0.100000,-0.100000)"
fill="#000000" stroke="none">
<path d="M1744 2606 c-42 -19 -91 -78 -199 -241 -107 -163 -315 -507 -382
-633 -85 -160 -124 -222 -176 -281 -29 -32 -63 -85 -76 -117 -14 -32 -91 -194
-172 -359 -170 -347 -175 -360 -160 -397 12 -31 86 -89 105 -82 30 12 213 350
232 430 4 16 26 58 49 94 23 36 53 85 65 110 33 66 78 128 105 146 24 16 195
47 320 59 69 6 85 8 196 21 65 7 67 4 64 -81 -2 -27 -6 -183 -10 -345 -7 -293
-7 -295 14 -322 26 -32 90 -52 136 -44 41 8 42 11 45 271 1 110 3 218 5 240 2
22 6 78 10 125 3 47 8 101 10 120 2 19 6 67 10 105 12 139 16 181 20 215 7 53
14 117 20 193 10 124 17 202 22 222 8 37 14 350 7 383 -4 18 -27 55 -52 83
-70 78 -150 110 -208 85z m72 -368 c-4 -73 -11 -175 -16 -228 -5 -52 -12 -122
-15 -155 -10 -101 -36 -298 -41 -306 -2 -4 -21 -5 -42 -2 -21 3 -102 -7 -183
-21 -192 -36 -269 -43 -269 -26 0 19 104 201 165 290 29 41 70 106 91 143 55
96 55 97 94 157 75 120 201 280 218 280 3 0 2 -60 -2 -132z"/>
</g>
</svg>
